# Blender 3.1.0
# www.blender.org
mtllib wood_tile.mtl
o Cube
v 1.000000 1.225654 -1.000000
v 1.000000 -0.696540 -1.000000
v 0.958292 1.225654 0.958292
v 1.000000 -0.696540 1.000000
v -1.000000 1.225654 -1.000000
v -1.000000 -0.696540 -1.000000
v -0.958292 1.225654 0.958292
v -1.000000 -0.696540 1.000000
v -1.000000 -0.696540 -0.666667
v -1.000000 -0.696540 -0.333333
v -1.000000 -0.696540 0.000000
v -1.000000 -0.696540 0.333333
v -1.000000 -0.696540 0.666667
v 0.951839 1.225654 -0.618506
v 0.958292 1.225654 -0.291625
v 0.958292 1.225654 -0.041708
v 0.951839 1.225654 0.381494
v 0.958292 1.225654 0.708375
v -0.958292 1.225654 0.708375
v -0.951839 1.225654 0.381494
v -0.958292 1.225654 -0.041708
v -0.958292 1.225654 -0.291625
v -0.951839 1.225654 -0.618506
v 1.000000 -0.696540 0.666667
v 1.000000 -0.696540 0.333333
v 1.000000 -0.696540 -0.000000
v 1.000000 -0.696540 -0.333333
v 1.000000 -0.696540 -0.666667
v -0.958292 1.225654 -0.708375
v -0.958292 1.225654 -0.958292
v 0.958292 1.225654 -0.958292
v 0.958292 1.225654 -0.708375
v 1.000000 1.225654 1.000000
v -1.000000 1.225654 1.000000
v 0.951839 1.225654 0.618506
v 0.951839 1.225654 -0.381494
v 0.955964 1.225654 0.044036
v -0.951839 1.225654 0.618506
v -0.955964 1.225654 0.044035
v -0.951839 1.225654 -0.381494
v -1.000000 1.225654 -0.666667
v -1.000000 1.225654 -1.000000
v 1.000000 1.225654 -1.000000
v 1.000000 1.225654 -0.666667
v 1.000000 1.225654 -0.666667
v 1.000000 1.225654 -0.333333
v 0.955964 1.225654 0.289298
v 1.000000 1.225654 0.666667
v -1.000000 1.225654 0.666667
v -0.955964 1.225654 0.289298
v -1.000000 1.225654 -0.333333
v -1.000000 1.225654 -0.666667
v 1.000000 1.225654 0.000000
v 1.000000 1.225654 0.333333
v -1.000000 1.225654 0.333333
v -1.000000 1.225654 -0.000000
v 1.000000 1.258733 0.666667
v 1.000000 1.258733 1.000000
v 1.000000 1.258733 -0.666667
v 1.000000 1.258733 -0.333333
v 1.000000 1.258733 0.000000
v 1.000000 1.258733 0.333333
v -1.000000 1.258733 1.000000
v -1.000000 1.258733 0.666667
v -1.000000 1.258733 0.333333
v -1.000000 1.258733 -0.000000
v -1.000000 1.258733 -0.333333
v -1.000000 1.258733 -0.666667
v -1.000000 1.258733 -0.666667
v -1.000000 1.258733 -1.000000
v 1.000000 1.258733 -1.000000
v 1.000000 1.258733 -0.666667
v 0.958292 1.258733 0.958292
v -0.958292 1.258733 0.958292
v 0.958292 1.258733 0.708375
v 0.958292 1.258733 -0.291625
v 0.958292 1.258733 -0.041708
v -0.958292 1.258733 0.708375
v -0.958292 1.258733 -0.041708
v -0.958292 1.258733 -0.291625
v -0.958292 1.258733 -0.708375
v -0.958292 1.258733 -0.958292
v 0.958292 1.258733 -0.958292
v 0.958292 1.258733 -0.708375
v 0.951839 1.258733 -0.618506
v 0.951839 1.258733 -0.381494
v 0.951839 1.258733 0.381494
v 0.951839 1.258733 0.618506
v -0.951839 1.258733 0.618506
v -0.951839 1.258733 0.381494
v -0.951839 1.258733 -0.381494
v -0.951839 1.258733 -0.618506
v 0.955964 1.258733 0.044036
v 0.955964 1.258733 0.289298
v -0.955964 1.258733 0.289298
v -0.955964 1.258733 0.044035
vn 1.0000 -0.0000 -0.0000
vn -0.0000 -0.0000 1.0000
vn -1.0000 -0.0000 -0.0000
vn -0.0000 -1.3309 -0.0000
vn -0.0000 -0.0000 -1.0000
vn -0.0000 1.3309 -0.0000
vn -0.7071 -0.0000 -0.7071
vn 0.7071 -0.0000 0.7071
vn 0.7071 -0.0000 -0.7071
vn -0.7071 -0.0000 0.7071
vt 0.810888 0.438586
vt 0.816748 0.473742
vt 0.810888 0.438586
vt 0.816748 0.473742
vt 0.810888 0.438586
vt 0.810888 0.438586
vt 0.816748 0.473742
vt 0.810888 0.438586
vt 0.816748 0.473742
vt 0.810888 0.438586
vt 0.810888 0.438586
vt 0.810888 0.438586
vt 0.810888 0.438586
vt 0.810888 0.438586
vt 0.810888 0.438586
vt 0.810888 0.438586
vt 0.816748 0.473742
vt 0.810888 0.438586
vt 0.816748 0.473742
vt 0.810888 0.438586
vt 0.816748 0.473742
vt 0.810888 0.438586
vt 0.816748 0.473742
vt 0.810888 0.438586
vt 0.816748 0.473742
vt 0.810888 0.438586
vt 0.816748 0.473742
vt 0.810888 0.438586
vt 0.816748 0.473742
vt 0.810888 0.438586
vt 0.816748 0.473742
vt 0.810888 0.438586
vt 0.816748 0.473742
vt 0.816748 0.473742
vt 0.810888 0.438586
vt 0.810888 0.438586
vt 0.810888 0.438586
vt 0.810888 0.438586
vt 0.810888 0.438586
vt 0.810888 0.438586
vt 0.810888 0.438586
vt 0.816748 0.473742
vt 0.816748 0.473742
vt 0.816748 0.473742
vt 0.810888 0.438586
vt 0.816748 0.473742
vt 0.810888 0.438586
vt 0.816748 0.473742
vt 0.810888 0.438586
vt 0.816748 0.473742
vt 0.810888 0.438586
vt 0.816748 0.473742
vt 0.810888 0.438586
vt 0.816748 0.473742
vt 0.810888 0.438586
vt 0.816748 0.473742
vt 0.810888 0.438586
vt 0.816748 0.473742
vt 0.810888 0.438586
vt 0.816748 0.473742
vt 0.810888 0.438586
vt 0.816748 0.473742
vt 0.810888 0.438586
vt 0.816748 0.473742
vt 0.816748 0.473742
vt 0.816748 0.473742
vt 0.810888 0.438586
vt 0.816748 0.473742
vt 0.810888 0.438586
vt 0.816748 0.473742
vt 0.810888 0.438586
vt 0.816748 0.473742
vt 0.810888 0.438586
vt 0.816748 0.473742
vt 0.810888 0.438586
vt 0.816748 0.473742
vt 0.810888 0.438586
vt 0.816748 0.473742
vt 0.810888 0.438586
vt 0.816748 0.473742
vt 0.810888 0.438586
vt 0.816748 0.473742
vt 0.810888 0.438586
vt 0.816748 0.473742
vt 0.810888 0.438586
vt 0.816748 0.473742
vt 0.810888 0.438586
vt 0.816748 0.473742
vt 0.810888 0.438586
vt 0.816748 0.473742
vt 0.810888 0.438586
vt 0.816748 0.473742
vt 0.816748 0.473742
vt 0.816748 0.473742
vt 0.816748 0.473742
vt 0.816748 0.473742
vt 0.816748 0.473742
vt 0.816748 0.473742
vt 0.816748 0.473742
vt 0.816748 0.473742
vt 0.816748 0.473742
vt 0.816748 0.473742
vt 0.816748 0.473742
vt 0.816748 0.473742
vt 0.816748 0.473742
vt 0.816748 0.473742
vt 0.816748 0.473742
vt 0.816748 0.473742
vt 0.816748 0.473742
vt 0.816748 0.473742
vt 0.816748 0.473742
vt 0.816748 0.473742
vt 0.816748 0.473742
vt 0.816748 0.473742
vt 0.816748 0.473742
vt 0.816748 0.473742
vt 0.816748 0.473742
vt 0.816748 0.473742
vt 0.816748 0.473742
vt 0.816748 0.473742
vt 0.816748 0.473742
vt 0.816748 0.473742
vt 0.816748 0.473742
vt 0.816748 0.473742
vt 0.816748 0.473742
vt 0.816748 0.473742
vt 0.816748 0.473742
vt 0.816748 0.473742
vt 0.816748 0.473742
vt 0.816748 0.473742
vt 0.816748 0.473742
vt 0.816748 0.473742
s 0
usemtl Material
f 48/76/1 54/88/1 62/98/1 57/93/1
f 4/5/2 33/47/2 34/49/2 8/10/2
f 9/11/3 52/83/3 5/6/3 6/8/3
f 13/15/4 24/36/4 4/5/4 8/10/4
f 24/36/1 48/75/1 33/47/1 4/5/1
f 6/8/5 5/6/5 1/1/5 2/3/5
f 2/3/1 1/1/1 45/69/1 28/40/1
f 28/40/1 45/69/1 46/71/1 27/39/1
f 27/39/1 46/71/1 53/85/1 26/38/1
f 26/38/1 53/85/1 54/87/1 25/37/1
f 25/37/1 54/87/1 48/75/1 24/36/1
f 6/8/4 2/3/4 28/40/4 9/11/4
f 9/11/4 28/40/4 27/39/4 10/12/4
f 10/12/4 27/39/4 26/38/4 11/13/4
f 11/13/4 26/38/4 25/37/4 12/14/4
f 12/14/4 25/37/4 24/36/4 13/15/4
f 8/10/3 34/49/3 49/77/3 13/15/3
f 13/15/3 49/77/3 55/89/3 12/14/3
f 12/14/3 55/89/3 56/91/3 11/13/3
f 11/13/3 56/91/3 51/81/3 10/12/3
f 10/12/3 51/81/3 52/83/3 9/11/3
f 52/84/6 45/70/6 44/68/6 41/64/6
f 14/17/5 23/34/5 92/128/5 85/121/5
f 33/48/1 48/76/1 57/93/1 58/94/1
f 48/76/7 18/25/7 75/111/7 57/93/7
f 54/88/1 53/86/1 61/97/1 62/98/1
f 7/9/2 3/4/2 73/109/2 74/110/2
f 1/2/6 5/7/6 42/65/6 43/66/6
f 45/70/6 1/2/6 43/66/6 44/68/6
f 5/7/6 52/84/6 41/64/6 42/65/6
f 3/4/6 7/9/6 34/50/6 33/48/6
f 34/50/8 7/9/8 74/110/8 63/99/8
f 53/86/1 46/72/1 60/96/1 61/97/1
f 23/34/9 52/84/9 68/104/9 92/128/9
f 3/4/10 33/48/10 58/94/10 73/109/10
f 22/32/6 15/18/6 46/71/6 51/81/6
f 16/20/6 21/30/6 56/91/6 53/85/6
f 19/26/6 18/24/6 48/75/6 49/77/6
f 46/72/1 45/70/1 59/95/1 60/96/1
f 30/43/6 31/44/6 43/66/6 42/65/6
f 51/82/8 40/62/8 91/127/8 67/103/8
f 32/45/6 29/41/6 41/63/6 44/67/6
f 29/42/2 32/46/2 84/120/2 81/117/2
f 20/29/9 55/90/9 65/101/9 90/126/9
f 32/46/10 44/68/10 72/108/10 84/120/10
f 49/78/8 38/58/8 89/125/8 64/100/8
f 23/35/6 14/16/6 45/69/6 52/83/6
f 36/53/6 40/61/6 51/81/6 46/71/6
f 20/28/6 17/22/6 54/87/6 55/89/6
f 35/51/6 38/57/6 49/77/6 48/75/6
f 31/44/5 30/43/5 82/118/5 83/119/5
f 43/66/7 31/44/7 83/119/7 71/107/7
f 39/59/6 37/55/6 53/85/6 56/91/6
f 47/73/6 50/79/6 55/89/6 54/87/6
f 75/111/6 78/114/6 74/110/6 73/109/6
f 85/121/6 92/128/6 91/127/6 86/122/6
f 76/112/6 80/116/6 79/115/6 77/113/6
f 93/129/6 96/132/6 95/131/6 94/130/6
f 87/123/6 90/126/6 89/125/6 88/124/6
f 83/119/6 82/118/6 81/117/6 84/120/6
f 75/111/6 73/109/6 58/94/6 57/93/6
f 76/112/6 77/113/6 61/97/6 60/96/6
f 74/110/6 78/114/6 64/100/6 63/99/6
f 79/115/6 80/116/6 67/103/6 66/102/6
f 81/117/6 82/118/6 70/106/6 69/105/6
f 83/119/6 84/120/6 72/108/6 71/107/6
f 85/121/6 86/122/6 60/96/6 59/95/6
f 87/123/6 88/124/6 57/93/6 62/98/6
f 89/125/6 90/126/6 65/101/6 64/100/6
f 91/127/6 92/128/6 68/104/6 67/103/6
f 93/129/6 94/130/6 62/98/6 61/97/6
f 95/131/6 96/132/6 66/102/6 65/101/6
f 46/72/7 15/19/7 76/112/7 60/96/7
f 37/56/5 39/60/5 96/132/5 93/129/5
f 40/62/2 36/54/2 86/122/2 91/127/2
f 49/78/3 34/50/3 63/99/3 64/100/3
f 16/21/10 53/86/10 61/97/10 77/113/10
f 50/80/2 47/74/2 94/130/2 95/131/2
f 17/23/5 20/29/5 90/126/5 87/123/5
f 55/90/3 49/78/3 64/100/3 65/101/3
f 19/27/9 49/78/9 64/100/9 78/114/9
f 53/86/7 37/56/7 93/129/7 61/97/7
f 38/58/2 35/52/2 88/124/2 89/125/2
f 56/92/3 55/90/3 65/101/3 66/102/3
f 56/92/8 21/31/8 79/115/8 66/102/8
f 47/74/10 54/88/10 62/98/10 94/130/10
f 15/19/5 22/33/5 80/116/5 76/112/5
f 45/70/7 14/17/7 85/121/7 59/95/7
f 51/82/3 56/92/3 66/102/3 67/103/3
f 42/65/3 41/64/3 69/105/3 70/106/3
f 22/33/9 51/82/9 67/103/9 80/116/9
f 55/90/8 50/80/8 95/131/8 65/101/8
f 21/31/2 16/21/2 77/113/2 79/115/2
f 36/54/10 46/72/10 60/96/10 86/122/10
f 52/84/3 51/82/3 67/103/3 68/104/3
f 41/64/8 29/42/8 81/117/8 69/105/8
f 39/60/9 56/92/9 66/102/9 96/132/9
f 18/25/5 19/27/5 78/114/5 75/111/5
f 54/88/7 17/23/7 87/123/7 62/98/7
f 44/68/1 43/66/1 71/107/1 72/108/1
f 30/43/9 42/65/9 70/106/9 82/118/9
f 35/52/10 48/76/10 57/93/10 88/124/10
